<svg xmlns="http://www.w3.org/2000/svg" width="800" height="600" viewBox="0 0 800 600"><rect width="800" height="600" fill="#f3f1ea"/><line x1="80" y1="40" x2="80" y2="560" stroke="#1d1b17" stroke-width="0.7" stroke-dasharray="3 9" opacity="0.35"/><line x1="200" y1="40" x2="200" y2="560" stroke="#1d1b17" stroke-width="0.7" stroke-dasharray="3 9" opacity="0.35"/><line x1="320" y1="40" x2="320" y2="560" stroke="#1d1b17" stroke-width="0.7" stroke-dasharray="3 9" opacity="0.35"/><line x1="440" y1="40" x2="440" y2="560" stroke="#1d1b17" stroke-width="0.7" stroke-dasharray="3 9" opacity="0.35"/><line x1="560" y1="40" x2="560" y2="560" stroke="#1d1b17" stroke-width="0.7" stroke-dasharray="3 9" opacity="0.35"/><line x1="680" y1="40" x2="680" y2="560" stroke="#1d1b17" stroke-width="0.7" stroke-dasharray="3 9" opacity="0.35"/><polyline points="40,191 116,123 192,137 268,115 344,80 420,80 496,87 572,134 648,187 724,182 800,179" fill="none" stroke="#6a6f9e" stroke-width="4" stroke-linejoin="round" stroke-linecap="round"/><circle cx="116" cy="123" r="7" fill="#1d1b17"/><circle cx="192" cy="137" r="7" fill="#1d1b17"/><circle cx="268" cy="115" r="7" fill="#1d1b17"/><circle cx="344" cy="80" r="7" fill="#1d1b17"/><circle cx="420" cy="80" r="7" fill="#1d1b17"/><circle cx="496" cy="87" r="7" fill="#1d1b17"/><circle cx="572" cy="134" r="7" fill="#1d1b17"/><circle cx="648" cy="187" r="7" fill="#1d1b17"/><circle cx="724" cy="182" r="7" fill="#1d1b17"/><line x1="106" y1="171" x2="106" y2="171" stroke="#1d1b17" stroke-width="1" opacity="0.5"/><line x1="118" y1="171" x2="106" y2="183" stroke="#1d1b17" stroke-width="1" opacity="0.5"/><line x1="130" y1="171" x2="106" y2="195" stroke="#1d1b17" stroke-width="1" opacity="0.5"/><line x1="142" y1="171" x2="106" y2="207" stroke="#1d1b17" stroke-width="1" opacity="0.5"/><line x1="154" y1="171" x2="106" y2="219" stroke="#1d1b17" stroke-width="1" opacity="0.5"/><line x1="166" y1="171" x2="106" y2="231" stroke="#1d1b17" stroke-width="1" opacity="0.5"/><line x1="178" y1="171" x2="106" y2="243" stroke="#1d1b17" stroke-width="1" opacity="0.5"/><line x1="190" y1="171" x2="106" y2="255" stroke="#1d1b17" stroke-width="1" opacity="0.5"/><line x1="202" y1="171" x2="106" y2="267" stroke="#1d1b17" stroke-width="1" opacity="0.5"/><line x1="214" y1="171" x2="106" y2="279" stroke="#1d1b17" stroke-width="1" opacity="0.5"/><line x1="226" y1="171" x2="106" y2="291" stroke="#1d1b17" stroke-width="1" opacity="0.5"/><line x1="238" y1="171" x2="106" y2="303" stroke="#1d1b17" stroke-width="1" opacity="0.5"/><text x="42" y="576" font-family="monospace" font-size="15" letter-spacing="4" fill="#1d1b17" opacity="0.65">SANDBOX · DRAINAGE LINE</text></svg>