<svg xmlns="http://www.w3.org/2000/svg" width="800" height="600" viewBox="0 0 800 600"><rect width="800" height="600" fill="#f3f1ea"></rect><line x1="80" y1="40" x2="80" y2="560" stroke="#1d1b17" stroke-width="0.7" stroke-dasharray="3 9" opacity="0.35"></line><line x1="200" y1="40" x2="200" y2="560" stroke="#1d1b17" stroke-width="0.7" stroke-dasharray="3 9" opacity="0.35"></line><line x1="320" y1="40" x2="320" y2="560" stroke="#1d1b17" stroke-width="0.7" stroke-dasharray="3 9" opacity="0.35"></line><line x1="440" y1="40" x2="440" y2="560" stroke="#1d1b17" stroke-width="0.7" stroke-dasharray="3 9" opacity="0.35"></line><line x1="560" y1="40" x2="560" y2="560" stroke="#1d1b17" stroke-width="0.7" stroke-dasharray="3 9" opacity="0.35"></line><line x1="680" y1="40" x2="680" y2="560" stroke="#1d1b17" stroke-width="0.7" stroke-dasharray="3 9" opacity="0.35"></line><polyline points="40,211 116,186 192,214 268,249 344,313 420,321 496,261 572,192 648,208 724,219 800,130" fill="none" stroke="#a8842c" stroke-width="4" stroke-linejoin="round" stroke-linecap="round"></polyline><circle cx="116" cy="186" r="7" fill="#1d1b17"></circle><circle cx="192" cy="214" r="7" fill="#1d1b17"></circle><circle cx="268" cy="249" r="7" fill="#1d1b17"></circle><circle cx="344" cy="313" r="7" fill="#1d1b17"></circle><circle cx="420" cy="321" r="7" fill="#1d1b17"></circle><circle cx="496" cy="261" r="7" fill="#1d1b17"></circle><circle cx="572" cy="192" r="7" fill="#1d1b17"></circle><circle cx="648" cy="208" r="7" fill="#1d1b17"></circle><circle cx="724" cy="219" r="7" fill="#1d1b17"></circle><line x1="380" y1="186" x2="380" y2="186" stroke="#1d1b17" stroke-width="1" opacity="0.5"></line><line x1="392" y1="186" x2="380" y2="198" stroke="#1d1b17" stroke-width="1" opacity="0.5"></line><line x1="404" y1="186" x2="380" y2="210" stroke="#1d1b17" stroke-width="1" opacity="0.5"></line><line x1="416" y1="186" x2="380" y2="222" stroke="#1d1b17" stroke-width="1" opacity="0.5"></line><line x1="428" y1="186" x2="380" y2="234" stroke="#1d1b17" stroke-width="1" opacity="0.5"></line><line x1="440" y1="186" x2="380" y2="246" stroke="#1d1b17" stroke-width="1" opacity="0.5"></line><line x1="452" y1="186" x2="380" y2="258" stroke="#1d1b17" stroke-width="1" opacity="0.5"></line><line x1="464" y1="186" x2="380" y2="270" stroke="#1d1b17" stroke-width="1" opacity="0.5"></line><line x1="476" y1="186" x2="380" y2="282" stroke="#1d1b17" stroke-width="1" opacity="0.5"></line><line x1="488" y1="186" x2="380" y2="294" stroke="#1d1b17" stroke-width="1" opacity="0.5"></line><line x1="500" y1="186" x2="380" y2="306" stroke="#1d1b17" stroke-width="1" opacity="0.5"></line><line x1="512" y1="186" x2="380" y2="318" stroke="#1d1b17" stroke-width="1" opacity="0.5"></line><text x="42" y="576" font-family="monospace" font-size="15" letter-spacing="4" fill="#1d1b17" opacity="0.65">SANDBOX · WAYFINDING MARKS</text></svg>