<svg xmlns="http://www.w3.org/2000/svg" width="800" height="600" viewBox="0 0 800 600"><rect width="800" height="600" fill="#f3f1ea"/><line x1="80" y1="40" x2="80" y2="560" stroke="#1d1b17" stroke-width="0.7" stroke-dasharray="3 9" opacity="0.35"/><line x1="200" y1="40" x2="200" y2="560" stroke="#1d1b17" stroke-width="0.7" stroke-dasharray="3 9" opacity="0.35"/><line x1="320" y1="40" x2="320" y2="560" stroke="#1d1b17" stroke-width="0.7" stroke-dasharray="3 9" opacity="0.35"/><line x1="440" y1="40" x2="440" y2="560" stroke="#1d1b17" stroke-width="0.7" stroke-dasharray="3 9" opacity="0.35"/><line x1="560" y1="40" x2="560" y2="560" stroke="#1d1b17" stroke-width="0.7" stroke-dasharray="3 9" opacity="0.35"/><line x1="680" y1="40" x2="680" y2="560" stroke="#1d1b17" stroke-width="0.7" stroke-dasharray="3 9" opacity="0.35"/><polyline points="40,272 116,311 192,295 268,250 344,202 420,286 496,262 572,212 648,130 724,150 800,180" fill="none" stroke="#5a7d6a" stroke-width="4" stroke-linejoin="round" stroke-linecap="round"/><circle cx="116" cy="311" r="7" fill="#1d1b17"/><circle cx="192" cy="295" r="7" fill="#1d1b17"/><circle cx="268" cy="250" r="7" fill="#1d1b17"/><circle cx="344" cy="202" r="7" fill="#1d1b17"/><circle cx="420" cy="286" r="7" fill="#1d1b17"/><circle cx="496" cy="262" r="7" fill="#1d1b17"/><circle cx="572" cy="212" r="7" fill="#1d1b17"/><circle cx="648" cy="130" r="7" fill="#1d1b17"/><circle cx="724" cy="150" r="7" fill="#1d1b17"/><line x1="378" y1="140" x2="378" y2="140" stroke="#1d1b17" stroke-width="1" opacity="0.5"/><line x1="390" y1="140" x2="378" y2="152" stroke="#1d1b17" stroke-width="1" opacity="0.5"/><line x1="402" y1="140" x2="378" y2="164" stroke="#1d1b17" stroke-width="1" opacity="0.5"/><line x1="414" y1="140" x2="378" y2="176" stroke="#1d1b17" stroke-width="1" opacity="0.5"/><line x1="426" y1="140" x2="378" y2="188" stroke="#1d1b17" stroke-width="1" opacity="0.5"/><line x1="438" y1="140" x2="378" y2="200" stroke="#1d1b17" stroke-width="1" opacity="0.5"/><line x1="450" y1="140" x2="378" y2="212" stroke="#1d1b17" stroke-width="1" opacity="0.5"/><line x1="462" y1="140" x2="378" y2="224" stroke="#1d1b17" stroke-width="1" opacity="0.5"/><line x1="474" y1="140" x2="378" y2="236" stroke="#1d1b17" stroke-width="1" opacity="0.5"/><line x1="486" y1="140" x2="378" y2="248" stroke="#1d1b17" stroke-width="1" opacity="0.5"/><line x1="498" y1="140" x2="378" y2="260" stroke="#1d1b17" stroke-width="1" opacity="0.5"/><line x1="510" y1="140" x2="378" y2="272" stroke="#1d1b17" stroke-width="1" opacity="0.5"/><text x="42" y="576" font-family="monospace" font-size="15" letter-spacing="4" fill="#1d1b17" opacity="0.65">SANDBOX · SCAFFOLD RHYTHM</text></svg>