<svg xmlns="http://www.w3.org/2000/svg" width="800" height="600" viewBox="0 0 800 600"><rect width="800" height="600" fill="#f3f1ea"></rect><line x1="80" y1="40" x2="80" y2="560" stroke="#1d1b17" stroke-width="0.7" stroke-dasharray="3 9" opacity="0.35"></line><line x1="200" y1="40" x2="200" y2="560" stroke="#1d1b17" stroke-width="0.7" stroke-dasharray="3 9" opacity="0.35"></line><line x1="320" y1="40" x2="320" y2="560" stroke="#1d1b17" stroke-width="0.7" stroke-dasharray="3 9" opacity="0.35"></line><line x1="440" y1="40" x2="440" y2="560" stroke="#1d1b17" stroke-width="0.7" stroke-dasharray="3 9" opacity="0.35"></line><line x1="560" y1="40" x2="560" y2="560" stroke="#1d1b17" stroke-width="0.7" stroke-dasharray="3 9" opacity="0.35"></line><line x1="680" y1="40" x2="680" y2="560" stroke="#1d1b17" stroke-width="0.7" stroke-dasharray="3 9" opacity="0.35"></line><polyline points="40,257 116,266 192,267 268,193 344,215 420,170 496,227 572,182 648,177 724,230 800,315" fill="none" stroke="#4a7d8a" stroke-width="4" stroke-linejoin="round" stroke-linecap="round"></polyline><circle cx="116" cy="266" r="7" fill="#1d1b17"></circle><circle cx="192" cy="267" r="7" fill="#1d1b17"></circle><circle cx="268" cy="193" r="7" fill="#1d1b17"></circle><circle cx="344" cy="215" r="7" fill="#1d1b17"></circle><circle cx="420" cy="170" r="7" fill="#1d1b17"></circle><circle cx="496" cy="227" r="7" fill="#1d1b17"></circle><circle cx="572" cy="182" r="7" fill="#1d1b17"></circle><circle cx="648" cy="177" r="7" fill="#1d1b17"></circle><circle cx="724" cy="230" r="7" fill="#1d1b17"></circle><line x1="491" y1="139" x2="491" y2="139" stroke="#1d1b17" stroke-width="1" opacity="0.5"></line><line x1="503" y1="139" x2="491" y2="151" stroke="#1d1b17" stroke-width="1" opacity="0.5"></line><line x1="515" y1="139" x2="491" y2="163" stroke="#1d1b17" stroke-width="1" opacity="0.5"></line><line x1="527" y1="139" x2="491" y2="175" stroke="#1d1b17" stroke-width="1" opacity="0.5"></line><line x1="539" y1="139" x2="491" y2="187" stroke="#1d1b17" stroke-width="1" opacity="0.5"></line><line x1="551" y1="139" x2="491" y2="199" stroke="#1d1b17" stroke-width="1" opacity="0.5"></line><line x1="563" y1="139" x2="491" y2="211" stroke="#1d1b17" stroke-width="1" opacity="0.5"></line><line x1="575" y1="139" x2="491" y2="223" stroke="#1d1b17" stroke-width="1" opacity="0.5"></line><line x1="587" y1="139" x2="491" y2="235" stroke="#1d1b17" stroke-width="1" opacity="0.5"></line><line x1="599" y1="139" x2="491" y2="247" stroke="#1d1b17" stroke-width="1" opacity="0.5"></line><line x1="611" y1="139" x2="491" y2="259" stroke="#1d1b17" stroke-width="1" opacity="0.5"></line><line x1="623" y1="139" x2="491" y2="271" stroke="#1d1b17" stroke-width="1" opacity="0.5"></line><text x="42" y="576" font-family="monospace" font-size="15" letter-spacing="4" fill="#1d1b17" opacity="0.65">SANDBOX · KIOSK PLAN</text></svg>