<svg xmlns="http://www.w3.org/2000/svg" width="800" height="600" viewBox="0 0 800 600"><rect width="800" height="600" fill="#f3f1ea"></rect><line x1="80" y1="40" x2="80" y2="560" stroke="#1d1b17" stroke-width="0.7" stroke-dasharray="3 9" opacity="0.35"></line><line x1="200" y1="40" x2="200" y2="560" stroke="#1d1b17" stroke-width="0.7" stroke-dasharray="3 9" opacity="0.35"></line><line x1="320" y1="40" x2="320" y2="560" stroke="#1d1b17" stroke-width="0.7" stroke-dasharray="3 9" opacity="0.35"></line><line x1="440" y1="40" x2="440" y2="560" stroke="#1d1b17" stroke-width="0.7" stroke-dasharray="3 9" opacity="0.35"></line><line x1="560" y1="40" x2="560" y2="560" stroke="#1d1b17" stroke-width="0.7" stroke-dasharray="3 9" opacity="0.35"></line><line x1="680" y1="40" x2="680" y2="560" stroke="#1d1b17" stroke-width="0.7" stroke-dasharray="3 9" opacity="0.35"></line><polyline points="40,344 116,279 192,326 268,363 344,392 420,482 496,449 572,491 648,447 724,382 800,342" fill="none" stroke="#8a5a80" stroke-width="4" stroke-linejoin="round" stroke-linecap="round"></polyline><circle cx="116" cy="279" r="7" fill="#1d1b17"></circle><circle cx="192" cy="326" r="7" fill="#1d1b17"></circle><circle cx="268" cy="363" r="7" fill="#1d1b17"></circle><circle cx="344" cy="392" r="7" fill="#1d1b17"></circle><circle cx="420" cy="482" r="7" fill="#1d1b17"></circle><circle cx="496" cy="449" r="7" fill="#1d1b17"></circle><circle cx="572" cy="491" r="7" fill="#1d1b17"></circle><circle cx="648" cy="447" r="7" fill="#1d1b17"></circle><circle cx="724" cy="382" r="7" fill="#1d1b17"></circle><line x1="457" y1="206" x2="457" y2="206" stroke="#1d1b17" stroke-width="1" opacity="0.5"></line><line x1="469" y1="206" x2="457" y2="218" stroke="#1d1b17" stroke-width="1" opacity="0.5"></line><line x1="481" y1="206" x2="457" y2="230" stroke="#1d1b17" stroke-width="1" opacity="0.5"></line><line x1="493" y1="206" x2="457" y2="242" stroke="#1d1b17" stroke-width="1" opacity="0.5"></line><line x1="505" y1="206" x2="457" y2="254" stroke="#1d1b17" stroke-width="1" opacity="0.5"></line><line x1="517" y1="206" x2="457" y2="266" stroke="#1d1b17" stroke-width="1" opacity="0.5"></line><line x1="529" y1="206" x2="457" y2="278" stroke="#1d1b17" stroke-width="1" opacity="0.5"></line><line x1="541" y1="206" x2="457" y2="290" stroke="#1d1b17" stroke-width="1" opacity="0.5"></line><line x1="553" y1="206" x2="457" y2="302" stroke="#1d1b17" stroke-width="1" opacity="0.5"></line><line x1="565" y1="206" x2="457" y2="314" stroke="#1d1b17" stroke-width="1" opacity="0.5"></line><line x1="577" y1="206" x2="457" y2="326" stroke="#1d1b17" stroke-width="1" opacity="0.5"></line><line x1="589" y1="206" x2="457" y2="338" stroke="#1d1b17" stroke-width="1" opacity="0.5"></line><text x="42" y="576" font-family="monospace" font-size="15" letter-spacing="4" fill="#1d1b17" opacity="0.65">SANDBOX · SHELTER SECTION</text></svg>