<svg xmlns="http://www.w3.org/2000/svg" width="800" height="600" viewBox="0 0 800 600"><rect width="800" height="600" fill="#f3f1ea"></rect><line x1="80" y1="40" x2="80" y2="560" stroke="#1d1b17" stroke-width="0.7" stroke-dasharray="3 9" opacity="0.35"></line><line x1="200" y1="40" x2="200" y2="560" stroke="#1d1b17" stroke-width="0.7" stroke-dasharray="3 9" opacity="0.35"></line><line x1="320" y1="40" x2="320" y2="560" stroke="#1d1b17" stroke-width="0.7" stroke-dasharray="3 9" opacity="0.35"></line><line x1="440" y1="40" x2="440" y2="560" stroke="#1d1b17" stroke-width="0.7" stroke-dasharray="3 9" opacity="0.35"></line><line x1="560" y1="40" x2="560" y2="560" stroke="#1d1b17" stroke-width="0.7" stroke-dasharray="3 9" opacity="0.35"></line><line x1="680" y1="40" x2="680" y2="560" stroke="#1d1b17" stroke-width="0.7" stroke-dasharray="3 9" opacity="0.35"></line><polyline points="40,292 116,261 192,213 268,221 344,278 420,364 496,346 572,397 648,377 724,385 800,442" fill="none" stroke="#c96f4a" stroke-width="4" stroke-linejoin="round" stroke-linecap="round"></polyline><circle cx="116" cy="261" r="7" fill="#1d1b17"></circle><circle cx="192" cy="213" r="7" fill="#1d1b17"></circle><circle cx="268" cy="221" r="7" fill="#1d1b17"></circle><circle cx="344" cy="278" r="7" fill="#1d1b17"></circle><circle cx="420" cy="364" r="7" fill="#1d1b17"></circle><circle cx="496" cy="346" r="7" fill="#1d1b17"></circle><circle cx="572" cy="397" r="7" fill="#1d1b17"></circle><circle cx="648" cy="377" r="7" fill="#1d1b17"></circle><circle cx="724" cy="385" r="7" fill="#1d1b17"></circle><line x1="84" y1="217" x2="84" y2="217" stroke="#1d1b17" stroke-width="1" opacity="0.5"></line><line x1="96" y1="217" x2="84" y2="229" stroke="#1d1b17" stroke-width="1" opacity="0.5"></line><line x1="108" y1="217" x2="84" y2="241" stroke="#1d1b17" stroke-width="1" opacity="0.5"></line><line x1="120" y1="217" x2="84" y2="253" stroke="#1d1b17" stroke-width="1" opacity="0.5"></line><line x1="132" y1="217" x2="84" y2="265" stroke="#1d1b17" stroke-width="1" opacity="0.5"></line><line x1="144" y1="217" x2="84" y2="277" stroke="#1d1b17" stroke-width="1" opacity="0.5"></line><line x1="156" y1="217" x2="84" y2="289" stroke="#1d1b17" stroke-width="1" opacity="0.5"></line><line x1="168" y1="217" x2="84" y2="301" stroke="#1d1b17" stroke-width="1" opacity="0.5"></line><line x1="180" y1="217" x2="84" y2="313" stroke="#1d1b17" stroke-width="1" opacity="0.5"></line><line x1="192" y1="217" x2="84" y2="325" stroke="#1d1b17" stroke-width="1" opacity="0.5"></line><line x1="204" y1="217" x2="84" y2="337" stroke="#1d1b17" stroke-width="1" opacity="0.5"></line><line x1="216" y1="217" x2="84" y2="349" stroke="#1d1b17" stroke-width="1" opacity="0.5"></line><text x="42" y="576" font-family="monospace" font-size="15" letter-spacing="4" fill="#1d1b17" opacity="0.65">SANDBOX · THRESHOLD STUDY</text></svg>